<?xml version="1.0" encoding="UTF-8"?>
<svg width="24px" height="24px" viewBox="0 0 24 24" version="1.1" xmlns="http://www.w3.org/2000/svg">
    <title>Feels Like</title>
    <g id="Page-1" stroke="none" stroke-width="1" fill="none" fill-rule="evenodd">
        <g id="feels-like-icon" fill="#FFFFFF" fill-rule="nonzero">
            <path d="M12,2C6.48,2 2,6.48 2,12C2,17.52 6.48,22 12,22C17.52,22 22,17.52 22,12C22,6.48 17.52,2 12,2ZM12,20C7.58,20 4,16.42 4,12C4,7.58 7.58,4 12,4C16.42,4 20,7.58 20,12C20,16.42 16.42,20 12,20ZM16.5,11C17.33,11 18,10.33 18,9.5C18,8.67 17.33,8 16.5,8C15.67,8 15,8.67 15,9.5C15,10.33 15.67,11 16.5,11ZM7.5,11C8.33,11 9,10.33 9,9.5C9,8.67 8.33,8 7.5,8C6.67,8 6,8.67 6,9.5C6,10.33 6.67,11 7.5,11ZM12,17.5C14.33,17.5 16.31,16.04 17.11,14H6.89C7.69,16.04 9.67,17.5 12,17.5Z" id="Shape"></path>
        </g>
    </g>
</svg>
