<?xml version="1.0" encoding="UTF-8"?>
<svg width="24px" height="24px" viewBox="0 0 24 24" version="1.1" xmlns="http://www.w3.org/2000/svg">
    <title>UV Index</title>
    <g id="Page-1" stroke="none" stroke-width="1" fill="none" fill-rule="evenodd">
        <g id="uv-icon" fill="#FFFFFF" fill-rule="nonzero">
            <path d="M12,7C12.55,7 13,7.45 13,8L13,16C13,16.55 12.55,17 12,17C11.45,17 11,16.55 11,16L11,8C11,7.45 11.45,7 12,7ZM12,3C12.55,3 13,3.45 13,4L13,5C13,5.55 12.55,6 12,6C11.45,6 11,5.55 11,5L11,4C11,3.45 11.45,3 12,3ZM12,18C12.55,18 13,18.45 13,19L13,20C13,20.55 12.55,21 12,21C11.45,21 11,20.55 11,20L11,19C11,18.45 11.45,18 12,18ZM20,12C20,12.55 19.55,13 19,13L18,13C17.45,13 17,12.55 17,12C17,11.45 17.45,11 18,11L19,11C19.55,11 20,11.45 20,12ZM6,12C6,12.55 5.55,13 5,13L4,13C3.45,13 3,12.55 3,12C3,11.45 3.45,11 4,11L5,11C5.55,11 6,11.45 6,12ZM17.24,6.76C17.63,7.15 17.63,7.78 17.24,8.17L16.54,8.87C16.15,9.26 15.52,9.26 15.13,8.87C14.74,8.48 14.74,7.85 15.13,7.46L15.83,6.76C16.22,6.37 16.85,6.37 17.24,6.76ZM8.87,15.13C9.26,15.52 9.26,16.15 8.87,16.54L8.17,17.24C7.78,17.63 7.15,17.63 6.76,17.24C6.37,16.85 6.37,16.22 6.76,15.83L7.46,15.13C7.85,14.74 8.48,14.74 8.87,15.13ZM17.24,17.24C16.85,17.63 16.22,17.63 15.83,17.24L15.13,16.54C14.74,16.15 14.74,15.52 15.13,15.13C15.52,14.74 16.15,14.74 16.54,15.13L17.24,15.83C17.63,16.22 17.63,16.85 17.24,17.24ZM8.87,8.87C8.48,9.26 7.85,9.26 7.46,8.87L6.76,8.17C6.37,7.78 6.37,7.15 6.76,6.76C7.15,6.37 7.78,6.37 8.17,6.76L8.87,7.46C9.26,7.85 9.26,8.48 8.87,8.87Z" id="Shape"></path>
        </g>
    </g>
</svg>
